<svg xmlns="http://www.w3.org/2000/svg" version="1.1" xmlns:xlink="http://www.w3.org/1999/xlink" xmlns:svgjs="http://svgjs.com/svgjs" width="512" height="512" x="0" y="0" viewBox="0 0 512 512" style="enable-background:new 0 0 512 512" xml:space="preserve" class=""><g><path d="M299.775 512c-68.38 0-132.667-26.629-181.02-74.98C70.403 388.667 43.774 324.38 43.774 256s26.628-132.667 74.98-181.02C167.107 26.629 231.395 0 299.775 0 353.959 0 405.76 16.738 449.58 48.405c20.144 14.557 24.673 42.688 10.115 62.831s-42.688 24.671-62.83 10.115C368.483 100.841 334.911 90 299.775 90c-91.533 0-166 74.467-166 166s74.467 166 166 166c35.136 0 68.708-10.841 97.09-31.352 20.142-14.555 48.272-10.029 62.83 10.115s10.028 48.274-10.115 62.831C405.76 495.262 353.959 512 299.775 512z" fill="#000000" data-original="#000000" class=""></path></g></svg>
