<?xml version="1.0" encoding="UTF-8"?>
<svg width="700pt" height="700pt" version="1.1" viewBox="0 0 700 700" xmlns="http://www.w3.org/2000/svg">
 <g>
  <path d="m202.24 194.36c-7.7461-0.007813-15.18 3.0664-20.656 8.543-5.4766 5.4766-8.5469 12.906-8.543 20.652 0.015625 7.7305 3.1016 15.141 8.5742 20.598 5.4766 5.457 12.895 8.5195 20.625 8.5117h295.48c7.7305 0.007813 15.145-3.0547 20.621-8.5117 5.4727-5.457 8.5586-12.867 8.5742-20.598 0.007813-7.7461-3.0664-15.176-8.543-20.652-5.4766-5.4766-12.91-8.5508-20.652-8.543z"/>
  <path d="m350.03 46.746c-7.7305-0.007813-15.148 3.0547-20.625 8.5117-5.4727 5.4609-8.5586 12.867-8.5703 20.598v295.31c-0.007812 7.7461 3.0625 15.176 8.5391 20.652 5.4805 5.4766 12.91 8.5508 20.656 8.543 7.7305-0.015625 15.137-3.0977 20.594-8.5742 5.4609-5.4727 8.5195-12.891 8.5156-20.621v-295.31c-0.015625-7.7148-3.0898-15.109-8.543-20.566-5.457-5.457-12.852-8.5273-20.566-8.543z"/>
  <path d="m202.24 454.96c-7.7461-0.007813-15.176 3.0664-20.656 8.543-5.4766 5.4766-8.5469 12.906-8.543 20.652 0.015625 7.7305 3.1016 15.141 8.5742 20.598 5.4766 5.457 12.891 8.5195 20.625 8.5117h295.48c7.7305 0.007813 15.145-3.0547 20.621-8.5117 5.4727-5.457 8.5586-12.867 8.5742-20.598 0.007813-7.7461-3.0664-15.176-8.543-20.652-5.4766-5.4766-12.91-8.5508-20.652-8.543z"/>
 </g>
</svg>
